<svg width="30" height="30" viewBox="0 0 30 30" fill="none" xmlns="http://www.w3.org/2000/svg">
<path d="M28.4211 24.4933V26.0722C28.4211 27.8091 27 29.2301 25.2632 29.2301H3.15789C1.40526 29.2301 0 27.8091 0 26.0722V3.96698C0 2.23013 1.40526 0.809082 3.15789 0.809082H25.2632C27 0.809082 28.4211 2.23013 28.4211 3.96698V5.54592H14.2105C12.4579 5.54592 11.0526 6.96698 11.0526 8.70382V21.3354C11.0526 23.0722 12.4579 24.4933 14.2105 24.4933H28.4211ZM14.2105 21.3354H30V8.70382H14.2105V21.3354ZM20.5263 17.388C19.2158 17.388 18.1579 16.3301 18.1579 15.0196C18.1579 13.7091 19.2158 12.6512 20.5263 12.6512C21.8368 12.6512 22.8947 13.7091 22.8947 15.0196C22.8947 16.3301 21.8368 17.388 20.5263 17.388Z" fill="#E2F0EF"/>
</svg>
