<svg width="30" height="35" viewBox="0 0 30 35" fill="none" xmlns="http://www.w3.org/2000/svg">
<path d="M10 15.6885H6.66667V19.0218H10V15.6885ZM16.6667 15.6885H13.3333V19.0218H16.6667V15.6885ZM23.3333 15.6885H20V19.0218H23.3333V15.6885ZM26.6667 4.02181H25V0.688477H21.6667V4.02181H8.33333V0.688477H5V4.02181H3.33333C1.48333 4.02181 0.0166667 5.52181 0.0166667 7.35514L0 30.6885C0 32.5218 1.48333 34.0218 3.33333 34.0218H26.6667C28.5 34.0218 30 32.5218 30 30.6885V7.35514C30 5.52181 28.5 4.02181 26.6667 4.02181ZM26.6667 30.6885H3.33333V12.3551H26.6667V30.6885Z" fill="#E2F0EF"/>
</svg>
