<svg width="30" height="31" viewBox="0 0 30 31" fill="none" xmlns="http://www.w3.org/2000/svg">
<path fill-rule="evenodd" clip-rule="evenodd" d="M5 0.666656C2.23859 0.666656 0 2.90524 0 5.66666V25.6667C0 28.4281 2.23859 30.6667 5 30.6667H25C27.7614 30.6667 30 28.4281 30 25.6667V5.66666C30 2.90524 27.7614 0.666656 25 0.666656H5ZM17.2855 14.2022C16.3478 15.1399 15.0761 15.6667 13.75 15.6667C12.4239 15.6667 11.1522 15.1399 10.2145 14.2022C9.27679 13.2645 8.75 11.9927 8.75 10.6667C8.75 9.34058 9.27679 8.0688 10.2145 7.13113C11.1522 6.19344 12.4239 5.66666 13.75 5.66666C15.0761 5.66666 16.3478 6.19344 17.2855 7.13113C18.2232 8.0688 18.75 9.34058 18.75 10.6667C18.75 11.9927 18.2232 13.2645 17.2855 14.2022ZM5 24.5065C5 20.6588 8.11719 17.5417 11.9648 17.5417H15.0231C15.0079 17.6697 15 17.7998 15 17.9315V18.0639C15 19.0117 15.3928 19.9184 16.0872 20.5648L20.2141 24.4177C20.3854 24.5776 20.6115 24.6667 20.8467 24.6667C21.082 24.6667 21.3081 24.5776 21.4794 24.4177L22.4319 23.5285C22.4768 23.848 22.5 24.1745 22.5 24.5065C22.5 25.1471 21.9805 25.6667 21.3398 25.6667H6.16016C5.51953 25.6667 5 25.1471 5 24.5065ZM16.8697 20.3852L20.1713 23.4675C20.3083 23.5954 20.4892 23.6667 20.6774 23.6667C20.8656 23.6667 21.0465 23.5954 21.1835 23.4675L24.4851 20.3852C25.0405 19.8681 25.3548 19.1427 25.3548 18.3845V18.2785C25.3548 17.0013 24.4321 15.9124 23.1732 15.7023C22.3401 15.5634 21.4923 15.8356 20.8967 16.4313L20.6774 16.6505L20.4581 16.4313C19.8625 15.8356 19.0147 15.5634 18.1816 15.7023C16.9227 15.9124 16 17.0013 16 18.2785V18.3845C16 19.1427 16.3143 19.8681 16.8697 20.3852Z" fill="#D9D9D9"/>
</svg>
