<svg width="31" height="31" viewBox="0 0 31 31" fill="none" xmlns="http://www.w3.org/2000/svg">
<path d="M15.0371 11.6877C13.2038 11.6877 11.7038 13.1877 11.7038 15.021C11.7038 16.8544 13.2038 18.3544 15.0371 18.3544C16.8704 18.3544 18.3704 16.8544 18.3704 15.021C18.3704 13.1877 16.8704 11.6877 15.0371 11.6877ZM26.7038 0.0210266H3.37044C1.52044 0.0210266 0.0371094 1.52103 0.0371094 3.35436V26.6877C0.0371094 28.521 1.52044 30.021 3.37044 30.021H26.7038C28.5538 30.021 30.0371 28.521 30.0371 26.6877V3.35436C30.0371 1.52103 28.5538 0.0210266 26.7038 0.0210266ZM23.7871 15.021C23.7871 15.4044 23.7538 15.7877 23.7038 16.1544L26.1704 18.0877C26.3871 18.271 26.4538 18.5877 26.3038 18.8377L23.9704 22.871C23.8204 23.121 23.5204 23.221 23.2538 23.121L20.3538 21.9544C19.7538 22.421 19.0871 22.8044 18.3871 23.1044L17.9538 26.1877C17.9038 26.471 17.6538 26.6877 17.3704 26.6877H12.7038C12.4204 26.6877 12.1704 26.471 12.1204 26.2044L11.6871 23.121C10.9704 22.821 10.3204 22.4377 9.72044 21.971L6.82044 23.1377C6.55378 23.2377 6.25378 23.1377 6.10378 22.8877L3.77044 18.8544C3.62044 18.6044 3.68711 18.2877 3.90378 18.1044L6.37044 16.171C6.32044 15.7877 6.28711 15.4044 6.28711 15.021C6.28711 14.6377 6.32044 14.2544 6.37044 13.8877L3.90378 11.9544C3.68711 11.771 3.62044 11.4544 3.77044 11.2044L6.10378 7.17103C6.25378 6.92103 6.55378 6.82103 6.82044 6.92103L9.72044 8.08769C10.3204 7.62103 10.9871 7.23769 11.6871 6.93769L12.1204 3.85436C12.1704 3.57103 12.4204 3.35436 12.7038 3.35436H17.3704C17.6538 3.35436 17.9038 3.57103 17.9538 3.83769L18.3871 6.92103C19.1038 7.22103 19.7538 7.60436 20.3538 8.07103L23.2538 6.90436C23.5204 6.80436 23.8204 6.90436 23.9704 7.15436L26.3038 11.1877C26.4538 11.4377 26.3871 11.7544 26.1704 11.9377L23.7038 13.871C23.7538 14.2544 23.7871 14.6377 23.7871 15.021Z" fill="#E2F0EF"/>
</svg>
