<svg width="30" height="34" viewBox="0 0 30 34" fill="none" xmlns="http://www.w3.org/2000/svg">
<path fill-rule="evenodd" clip-rule="evenodd" d="M26.875 3.68848H18.6982C18.4006 1.91491 16.8581 0.563477 15 0.563477C13.1419 0.563477 11.5994 1.91491 11.3018 3.68848H3.125C1.39911 3.68848 0 5.08759 0 6.81348V30.5635C0 32.2894 1.39911 33.6885 3.125 33.6885H26.875C28.6009 33.6885 30 32.2894 30 30.5635V6.81348C30 5.08759 28.6009 3.68848 26.875 3.68848ZM22.9432 13.9726C22.9432 15.8589 21.4318 17.3817 19.5455 17.3817C17.6591 17.3817 16.1364 15.8589 16.1364 13.9726C16.1364 12.0862 17.6591 10.5635 19.5455 10.5635C21.4318 10.5635 22.9432 12.0862 22.9432 13.9726ZM13.8523 13.9726C13.8523 15.8589 12.3409 17.3817 10.4545 17.3817C8.56818 17.3817 7.04545 15.8589 7.04545 13.9726C7.04545 12.0862 8.56818 10.5635 10.4545 10.5635C12.3409 10.5635 13.8523 12.0862 13.8523 13.9726ZM2.5 23.6317C2.5 20.9839 7.80682 19.6544 10.4545 19.6544C13.1023 19.6544 18.4091 20.9839 18.4091 23.6317V26.4726H2.5V23.6317ZM18.4432 19.7112C18.8409 19.6771 19.2159 19.6544 19.5455 19.6544C22.1932 19.6544 27.5 20.9839 27.5 23.6317V26.4726H20.6818V23.6317C20.6818 21.9498 19.7614 20.6658 18.4432 19.7112ZM15 5.56348C15.6904 5.56348 16.25 5.00383 16.25 4.31348C16.25 3.62312 15.6904 3.06348 15 3.06348C14.3096 3.06348 13.75 3.62312 13.75 4.31348C13.75 5.00383 14.3096 5.56348 15 5.56348Z" fill="#E2F0EF"/>
</svg>
