<svg width="30" height="30" viewBox="0 0 30 30" fill="none" xmlns="http://www.w3.org/2000/svg">
<path fill-rule="evenodd" clip-rule="evenodd" d="M5 0C2.23858 0 0 2.23858 0 5V25C0 27.7614 2.23858 30 5 30H25C27.7614 30 30 27.7614 30 25V5C30 2.23858 27.7614 0 25 0H5ZM13.5461 25.2231C13.1554 25.6138 12.6255 25.8333 12.0729 25.8333C11.5204 25.8333 10.9905 25.6138 10.5998 25.2231C10.2091 24.8324 9.98958 24.3025 9.98958 23.75C9.98958 23.1975 10.2091 22.6676 10.5998 22.2769C10.9905 21.8862 11.5204 21.6667 12.0729 21.6667C12.6255 21.6667 13.1554 21.8862 13.5461 22.2769C13.9368 22.6676 14.1562 23.1975 14.1562 23.75C14.1562 24.3025 13.9368 24.8324 13.5461 25.2231ZM21.8794 25.2231C21.4887 25.6138 20.9588 25.8333 20.4062 25.8333C19.8537 25.8333 19.3238 25.6138 18.9331 25.2231C18.5424 24.8324 18.3229 24.3025 18.3229 23.75C18.3229 23.1975 18.5424 22.6676 18.9331 22.2769C19.3238 21.8862 19.8537 21.6667 20.4062 21.6667C20.9588 21.6667 21.4887 21.8862 21.8794 22.2769C22.2701 22.6676 22.4896 23.1975 22.4896 23.75C22.4896 24.3025 22.2701 24.8324 21.8794 25.2231ZM26.6562 17.5V15.9687C26.6562 15.6042 26.5625 15.25 26.3854 14.9375L24.875 12.2917H23.5312C22.9583 12.2917 22.4896 12.7604 22.4896 13.3333V16.4583C22.4896 17.0312 22.9583 17.5 23.5312 17.5H26.6562ZM9.66667 5H17.3646C17.8958 5 18.3229 5.42708 18.3229 5.95833V14.6146C18.3229 15.6771 17.4583 16.5417 16.3958 16.5417H6.86458C6.29167 16.5417 5.82292 16.0729 5.82292 15.5V15.2604H6.625C7.02083 15.2604 7.34375 14.9479 7.34375 14.5521C7.34375 14.1562 7.02083 13.8333 6.625 13.8333H5.82292V12.3958H8.53125C8.92708 12.3958 9.25 12.0833 9.25 11.6875C9.25 11.2917 8.92708 10.9688 8.53125 10.9688H5.82292V9.53125H10.4479C10.8438 9.53125 11.1562 9.21875 11.1562 8.82292C11.1562 8.42708 10.8438 8.10417 10.4479 8.10417H5.89583C6.06725 7.22993 6.53702 6.44238 7.22483 5.87617C7.91265 5.30996 8.77578 5.00025 9.66667 5ZM5.89583 8.10417C5.85417 8.34375 5.82292 8.59375 5.82292 8.84375V9.53125H4.71875C4.32292 9.53125 4 9.21875 4 8.82292C4 8.42708 4.32292 8.10417 4.71875 8.10417H5.89583ZM5.82292 10.9688H4.71875C4.32292 10.9688 4 11.2917 4 11.6875C4 12.0833 4.32292 12.3958 4.71875 12.3958H5.82292V10.9688ZM5.82292 13.8333H4.71875C4.32292 13.8333 4 14.1562 4 14.5521C4 14.9479 4.32292 15.2604 4.71875 15.2604H5.82292V13.8333ZM26.6562 19.5833C26.6562 19.2917 26.4271 19.0625 26.1354 19.0625H23.5312C22.8406 19.0625 22.1782 18.7881 21.6898 18.2998C21.2014 17.8114 20.9271 17.149 20.9271 16.4583V13.3333C20.9271 12.6427 21.2014 11.9803 21.6898 11.4919C22.1782 11.0035 22.8406 10.7292 23.5312 10.7292C23.7292 10.7292 23.8542 10.5104 23.7604 10.3438L23.0937 9.17708C22.7187 8.53125 22.0312 8.125 21.2812 8.125H20.4062C19.8333 8.125 19.3646 8.59375 19.3646 9.16667V14.8958C19.3646 15.5865 19.0902 16.2489 18.6018 16.7373C18.1135 17.2256 17.4511 17.5 16.7604 17.5H6.86458C6.29167 17.5 5.82292 17.9688 5.82292 18.5417V20.625C5.82292 22.3542 7.21875 23.75 8.94792 23.75C8.94792 22.0312 10.3542 20.625 12.0729 20.625C13.7917 20.625 15.1979 22.0312 15.1979 23.75H17.2812C17.2812 22.0312 18.6875 20.625 20.4062 20.625C22.125 20.625 23.5312 22.0312 23.5312 23.75C25.2604 23.75 26.6562 22.3542 26.6562 20.625V19.5833Z" fill="#E2F0EF"/>
</svg>
