<svg width="30" height="30" viewBox="0 0 30 30" fill="none" xmlns="http://www.w3.org/2000/svg">
<path d="M23.5156 17.9959C23.6045 18.2338 23.6445 18.4872 23.6328 18.741C23.6445 18.9947 23.6045 19.2482 23.5156 19.486C23.4263 19.7239 23.29 19.9412 23.1143 20.1248C22.939 20.3085 22.728 20.4547 22.4946 20.5545C22.2607 20.6544 22.0098 20.7059 21.7554 20.7059C21.5015 20.7059 21.25 20.6544 21.0166 20.5545C20.7832 20.4547 20.5723 20.3085 20.397 20.1248C20.3008 20.0241 20.2163 19.9133 20.145 19.7945C20.0859 19.6967 20.0361 19.5934 19.9956 19.486C19.9067 19.2482 19.8667 18.9947 19.8784 18.741C19.8667 18.4872 19.9067 18.2338 19.9956 17.9959C20.085 17.7581 20.2212 17.5407 20.397 17.3571C20.5723 17.1734 20.7832 17.0272 21.0166 16.9274C21.25 16.8275 21.5015 16.776 21.7554 16.776C22.0098 16.776 22.2607 16.8275 22.4946 16.9274C22.728 17.0272 22.939 17.1734 23.1143 17.3571C23.29 17.5407 23.4263 17.7581 23.5156 17.9959Z" fill="#D9D9D9"/>
<path fill-rule="evenodd" clip-rule="evenodd" d="M5 0C2.23877 0 0 2.23859 0 5V25C0 27.7614 2.23877 30 5 30H25C27.7612 30 30 27.7614 30 25V5C30 2.23859 27.7612 0 25 0H5ZM15.2881 6.46472C14.3501 5.52692 13.0781 5 11.7515 5C10.4253 5 9.15332 5.52692 8.21533 6.46472C7.27783 7.40259 6.75049 8.67462 6.75049 10.001C6.75049 11.3273 7.27783 12.5993 8.21533 13.5372C9.15332 14.475 10.4253 15.002 11.7515 15.002C13.0781 15.002 14.3501 14.475 15.2881 13.5372C16.2256 12.5993 16.7524 11.3273 16.7524 10.001C16.7524 8.67462 16.2256 7.40259 15.2881 6.46472ZM13.5371 16.8773H9.96631C6.11768 16.8773 3 19.9951 3 23.8435C3 24.4843 3.51953 25.0039 4.16016 25H19.0928C18.8896 24.6953 18.7842 24.3319 18.7842 23.9724V23.9373C18.0967 24.3162 17.1631 24.2576 16.5493 23.5974C16.1899 23.2106 15.8696 22.7808 15.5962 22.308C15.4185 22.0011 15.2676 21.6859 15.1406 21.3646C15.0718 21.1911 15.0103 21.0157 14.9556 20.839C14.6938 19.9912 15.0884 19.1707 15.7368 18.7566C15.1743 18.3972 14.8032 17.729 14.8853 17.0062C14.4517 16.9242 13.998 16.8773 13.5371 16.8773ZM20.4761 12.9468C20.2104 13.0054 20.0347 13.2516 20.0347 13.5251V14.7128C19.7222 14.8495 19.4253 15.0176 19.1553 15.2169L18.1865 14.6581C17.9482 14.5214 17.6514 14.5526 17.4639 14.7519C17.167 15.0684 16.9053 15.4239 16.6782 15.8146C16.4517 16.2053 16.2798 16.6116 16.1509 17.0258C16.0728 17.2875 16.1938 17.561 16.4321 17.6978L17.4053 18.2565C17.3984 18.3134 17.3931 18.3702 17.3887 18.4273C17.3809 18.5309 17.3779 18.6351 17.3779 18.741C17.3779 18.905 17.3896 19.0652 17.4053 19.2254L16.436 19.7841C16.1978 19.9208 16.0728 20.1943 16.1548 20.4561C16.2798 20.8703 16.4556 21.2766 16.6821 21.6673C16.9092 22.058 17.1709 22.4135 17.4678 22.73C17.6553 22.9293 17.9521 22.9605 18.1904 22.8238L19.1553 22.2651C19.4253 22.4683 19.7222 22.6362 20.0347 22.7691V23.9646C20.0347 24.2381 20.2104 24.4843 20.4761 24.5428C20.8862 24.6366 21.3159 24.6874 21.7534 24.6874C22.0425 24.6874 22.3281 24.6653 22.6069 24.6232C22.7505 24.6016 22.8921 24.5747 23.0312 24.5428C23.2969 24.4843 23.4727 24.2381 23.4727 23.9646V22.7691C23.7852 22.6362 24.0742 22.4683 24.3438 22.269L25.3169 22.8277C25.5513 22.9644 25.8521 22.9332 26.0396 22.7339C26.3364 22.4174 26.6021 22.0619 26.8247 21.6712C27.0479 21.2805 27.2236 20.8742 27.3525 20.46C27.4307 20.1982 27.3096 19.9247 27.0713 19.788L26.0942 19.2254C26.1064 19.126 26.1143 19.0281 26.1182 18.929C26.1206 18.8683 26.1216 18.8071 26.1216 18.7449C26.1216 18.5807 26.1099 18.4206 26.0942 18.2643L27.0713 17.7017C27.3096 17.5649 27.4346 17.2914 27.3525 17.0297C27.2998 16.8549 27.2378 16.6815 27.167 16.51C27.0698 16.2753 26.9561 16.0443 26.8247 15.8185C26.5981 15.4278 26.3364 15.0723 26.0396 14.7558C25.8521 14.5565 25.5552 14.5253 25.3169 14.662L24.3438 15.2208C24.1665 15.0897 23.979 14.9722 23.7837 14.8693C23.6821 14.8157 23.5781 14.7661 23.4727 14.7206V13.5251C23.4727 13.2516 23.2969 13.0054 23.0312 12.9468C22.6211 12.8531 22.1914 12.8023 21.7534 12.8023C21.5293 12.8023 21.3071 12.8156 21.0889 12.8412C20.8809 12.8656 20.6763 12.9011 20.4761 12.9468Z" fill="#D9D9D9"/>
</svg>
