<svg width="31" height="31" viewBox="0 0 31 31" fill="none" xmlns="http://www.w3.org/2000/svg">
<path d="M0.0371094 4.22628V27.5596C0.0371094 29.3929 1.52044 30.8929 3.37044 30.8929H26.7038C28.5371 30.8929 30.0371 29.3929 30.0371 27.5596V4.22628C30.0371 2.39294 28.5371 0.892944 26.7038 0.892944H3.37044C1.52044 0.892944 0.0371094 2.39294 0.0371094 4.22628ZM20.0371 10.8929C20.0371 13.6596 17.8038 15.8929 15.0371 15.8929C12.2704 15.8929 10.0371 13.6596 10.0371 10.8929C10.0371 8.12628 12.2704 5.89294 15.0371 5.89294C17.8038 5.89294 20.0371 8.12628 20.0371 10.8929ZM5.03711 24.2263C5.03711 20.8929 11.7038 19.0596 15.0371 19.0596C18.3704 19.0596 25.0371 20.8929 25.0371 24.2263V25.8929H5.03711V24.2263Z" fill="#E2F0EF"/>
</svg>
