<svg width="30" height="31" viewBox="0 0 30 31" fill="none" xmlns="http://www.w3.org/2000/svg">
<path fill-rule="evenodd" clip-rule="evenodd" d="M5 0.666656C2.23858 0.666656 0 2.90523 0 5.66666V25.6667C0 28.4281 2.23858 30.6667 5 30.6667H25C27.7614 30.6667 30 28.4281 30 25.6667V5.66666C30 2.90523 27.7614 0.666656 25 0.666656H5ZM18.59 12.0767L20 10.6667L25 15.6667L20 20.6667L18.59 19.2467L21.17 16.6667H11V14.6667H21.17L18.59 12.0767ZM15 8.66666H7V22.6667H15V24.6667H7C5.9 24.6667 5 23.7667 5 22.6667V8.66666C5 7.56666 5.9 6.66666 7 6.66666H15V8.66666Z" fill="#E2F0EF"/>
</svg>
