<svg width="30" height="34" viewBox="0 0 30 34" fill="none" xmlns="http://www.w3.org/2000/svg">
<path d="M26.6667 3.56344H19.7C19 1.6301 17.1667 0.230103 15 0.230103C12.8333 0.230103 11 1.6301 10.3 3.56344H3.33333C1.5 3.56344 0 5.06344 0 6.89677V30.2301C0 32.0634 1.5 33.5634 3.33333 33.5634H26.6667C28.5 33.5634 30 32.0634 30 30.2301V6.89677C30 5.06344 28.5 3.56344 26.6667 3.56344ZM15 3.56344C15.9167 3.56344 16.6667 4.31344 16.6667 5.2301C16.6667 6.14677 15.9167 6.89677 15 6.89677C14.0833 6.89677 13.3333 6.14677 13.3333 5.2301C13.3333 4.31344 14.0833 3.56344 15 3.56344ZM18.3333 26.8968H6.66667V23.5634H18.3333V26.8968ZM23.3333 20.2301H6.66667V16.8968H23.3333V20.2301ZM23.3333 13.5634H6.66667V10.2301H23.3333V13.5634Z" fill="#E2F0EF"/>
</svg>
